<svg width="32" height="32" viewBox="0 0 32 32" fill="none" xmlns="http://www.w3.org/2000/svg">
<path d="M3.373 9.0309L15.7222 1.5804L28.3491 8.54987L28.6268 22.9698L16.2776 30.4203L3.65072 23.4509L3.373 9.0309Z" stroke="#9F6B08"/>
<path d="M21.3531 16.3536C21.5483 16.1583 21.5483 15.8417 21.3531 15.6464L18.1711 12.4645C17.9758 12.2692 17.6592 12.2692 17.464 12.4645C17.2687 12.6597 17.2687 12.9763 17.464 13.1716L20.2924 16L17.464 18.8284C17.2687 19.0237 17.2687 19.3403 17.464 19.5355C17.6592 19.7308 17.9758 19.7308 18.1711 19.5355L21.3531 16.3536ZM10.9995 16.5H20.9995V15.5H10.9995V16.5Z" fill="#9F6B08"/>
</svg>
